<svg xmlns="http://www.w3.org/2000/svg" xmlns:xlink="http://www.w3.org/1999/xlink" version="1.1" x="0px" y="0px" viewBox="0 0 100 125" style="enable-background:new 0 0 100 100;" xml:space="preserve"><path d="M16.0269108,40.4336777c-2.0532236-0.7875977-4.3627939-0.4931641-6.5019541,0.828125  c-2.0517573,1.269043-3.7119136,3.3491211-4.6743159,5.8579102C2.8272033,52.3946152,4.5483947,57.977623,8.6880426,59.5664902  c0.7504883,0.2880859,1.5297852,0.4248047,2.3149414,0.4248047c3.5444336,0,7.2050791-2.7929688,8.8618174-7.1113281  C21.8882389,47.6045761,20.1665592,42.0215683,16.0269108,40.4336777z M15.560113,44.442955l-4.5375977,11.8305664  c-0.1523438,0.3974609-0.5317383,0.6416016-0.9335938,0.6416016c-0.1191406,0-0.2402344-0.0214844-0.3579102-0.0664063  c-0.515625-0.1972656-0.7734375-0.7763672-0.5756836-1.2919922l4.5375977-11.8295898  c0.1972656-0.515625,0.7753906-0.7739258,1.2915039-0.5756836C15.5000544,43.349205,15.7578669,43.92733,15.560113,44.442955z   M34.8457565,40.4336777c-4.1381817-1.5888672-9.1533184,1.4116211-11.1762676,6.6865234  c-2.0229492,5.2744141-0.3012695,10.8574219,3.8378906,12.4462891c0.7504883,0.2880859,1.5292969,0.4248047,2.3149414,0.4248047  c3.5439434,0,7.2045879-2.7939453,8.8613262-7.1113281C40.7070847,47.6045761,38.985405,42.0215683,34.8457565,40.4336777z   M34.3789597,44.442955l-4.5375957,11.8305664c-0.1523438,0.3974609-0.5317383,0.6416016-0.9335938,0.6416016  c-0.1191406,0-0.2402344-0.0214844-0.3579102-0.0664063c-0.515625-0.1972656-0.7734375-0.7763672-0.5756836-1.2919922  l4.5375957-11.8295898c0.1977539-0.515625,0.7763672-0.7739258,1.2915039-0.5756836  C34.3189011,43.349205,34.5767136,43.92733,34.3789597,44.442955z M53.6650925,40.4336777  c-2.0532227-0.7875977-4.362793-0.4931641-6.5019531,0.828125c-2.0517578,1.269043-3.7119141,3.3491211-4.6743164,5.8579102  c-2.0234375,5.2749023-0.3022461,10.8579102,3.8374023,12.4467773c0.7543945,0.2900391,1.543457,0.4326172,2.3461914,0.4326172  c1.3813477,0,2.8027344-0.4248047,4.1557617-1.2617188c2.0517578-1.2685547,3.7119141-3.3486328,4.6743164-5.8574219  s1.1196289-5.1660156,0.4428711-7.4819336C57.2393112,42.9844589,55.7192917,41.2217636,53.6650925,40.4336777z   M53.1982956,44.4434433l-4.5380859,11.8300781c-0.1523438,0.3974609-0.5317383,0.6416016-0.9335938,0.6416016  c-0.1191406,0-0.2402344-0.0214844-0.3583984-0.0664063c-0.515625-0.1972656-0.7729492-0.7763672-0.5751953-1.2919922  l4.5380859-11.8300781c0.1972656-0.5151367,0.7749023-0.7734375,1.2919922-0.5751953  C53.1387253,43.349205,53.3960495,43.92733,53.1982956,44.4434433z M72.4844284,40.4336777  c-4.1425781-1.5888672-9.1533203,1.4111328-11.1767578,6.6865234c-2.0229492,5.2744141-0.3017578,10.8574219,3.8369141,12.4462891  c0.7548828,0.2900391,1.5439453,0.4326172,2.3466797,0.4326172c1.3818359,0,2.8027344-0.4248047,4.15625-1.2617188  c2.0517578-1.2685547,3.7119141-3.3486328,4.6738281-5.8574219c0.9628906-2.5087891,1.1201172-5.1660156,0.4423828-7.4819336  C76.0586472,42.9844589,74.5381393,41.2212753,72.4844284,40.4336777z M72.0176315,44.4434433l-4.5380859,11.8300781  c-0.1523438,0.3974609-0.53125,0.6416016-0.9335938,0.6416016c-0.1191406,0-0.2402344-0.0214844-0.3583984-0.0664063  c-0.515625-0.1972656-0.7734375-0.7763672-0.5751953-1.2919922l4.5380859-11.8300781  c0.1982422-0.5151367,0.7753906-0.7729492,1.2919922-0.5751953C71.9580612,43.349205,72.2158737,43.92733,72.0176315,44.4434433z   M95.5830612,45.3980331c-0.7060547-2.4135742-2.2255859-4.1762695-4.2792969-4.9643555  c-2.0546875-0.7875977-4.3632813-0.4936523-6.5029297,0.828125c-2.0517578,1.269043-3.7119141,3.3491211-4.6738281,5.8579102  c-2.0234375,5.2749023-0.3017578,10.8579102,3.8369141,12.4467773c0.7509766,0.2880859,1.5302734,0.4248047,2.3154297,0.4248047  c3.5439453,0,7.2050781-2.7929688,8.8613281-7.1113281C96.103569,50.3711777,96.2607956,47.7139511,95.5830612,45.3980331z   M93.2734909,52.1631699c-1.6289063,4.2460938-5.4824219,6.7275391-8.5927734,5.5361328  c-3.109375-1.1933594-4.3144531-5.6181641-2.6865234-9.8632813c0.8066406-2.1025391,2.1767578-3.8330078,3.8583984-4.8725586  c1.0283203-0.6362305,2.0927734-0.9594727,3.109375-0.9594727c0.5605469,0,1.1074219,0.0981445,1.625,0.296875  c1.4580078,0.559082,2.5498047,1.8583984,3.0761719,3.6586914C94.2188034,47.8575058,94.0801315,50.0606308,93.2734909,52.1631699z   M90.8359909,44.4434433L86.297905,56.2735214c-0.1523438,0.3974609-0.53125,0.6416016-0.9335938,0.6416016  c-0.1191406,0-0.2402344-0.0214844-0.3583984-0.0664063c-0.515625-0.1972656-0.7734375-0.7763672-0.5751953-1.2919922  l4.5380859-11.8300781c0.1982422-0.5151367,0.7753906-0.7729492,1.2919922-0.5751953  C90.7764206,43.349205,91.0342331,43.92733,90.8359909,44.4434433z"/><text x="0" y="115" fill="#000000" font-size="5px" font-weight="bold" font-family="'Helvetica Neue', Helvetica, Arial-Unicode, Arial, Sans-serif">Created by Llisole</text><text x="0" y="120" fill="#000000" font-size="5px" font-weight="bold" font-family="'Helvetica Neue', Helvetica, Arial-Unicode, Arial, Sans-serif">from the Noun Project</text></svg>